<mxfile host="app.diagrams.net" agent="Mozilla/5.0 (Windows NT 10.0; Win64; x64) AppleWebKit/537.36 (KHTML, like Gecko) Chrome/133.0.0.0 Safari/537.36" version="26.0.16">
  <diagram name="Page-1" id="HnS99wQGOPGrbwzUuvcM">
    <mxGraphModel grid="1" page="1" gridSize="10" guides="1" tooltips="1" connect="1" arrows="1" fold="1" pageScale="1" pageWidth="827" pageHeight="1169" math="0" shadow="0">
      <root>
        <mxCell id="0" />
        <mxCell id="1" parent="0" />
        <mxCell id="HgDEF3lIqZuHBoiITZHO-1" value="" style="strokeWidth=1;shadow=0;dashed=0;align=center;html=1;shape=mxgraph.mockup.containers.browserWindow;rSize=0;strokeColor=#666666;strokeColor2=#008cff;strokeColor3=#c4c4c4;mainText=,;recursiveResize=0;" vertex="1" parent="1">
          <mxGeometry x="-570" y="250" width="1440" height="900" as="geometry" />
        </mxCell>
        <mxCell id="HgDEF3lIqZuHBoiITZHO-2" value="Travel NZ" style="strokeWidth=1;shadow=0;dashed=0;align=center;html=1;shape=mxgraph.mockup.containers.anchor;fontSize=17;fontColor=#666666;align=left;whiteSpace=wrap;" vertex="1" parent="HgDEF3lIqZuHBoiITZHO-1">
          <mxGeometry x="60" y="12" width="110" height="26" as="geometry" />
        </mxCell>
        <mxCell id="HgDEF3lIqZuHBoiITZHO-3" value="https://www.draw.io" style="strokeWidth=1;shadow=0;dashed=0;align=center;html=1;shape=mxgraph.mockup.containers.anchor;rSize=0;fontSize=17;fontColor=#666666;align=left;" vertex="1" parent="HgDEF3lIqZuHBoiITZHO-1">
          <mxGeometry x="130" y="60" width="250" height="26" as="geometry" />
        </mxCell>
        <mxCell id="HgDEF3lIqZuHBoiITZHO-4" value="" style="verticalLabelPosition=bottom;shadow=0;dashed=0;align=center;html=1;verticalAlign=top;strokeWidth=1;shape=mxgraph.mockup.graphics.simpleIcon;strokeColor=#999999;" vertex="1" parent="HgDEF3lIqZuHBoiITZHO-1">
          <mxGeometry x="10" y="180" width="1420" height="200" as="geometry" />
        </mxCell>
        <mxCell id="HgDEF3lIqZuHBoiITZHO-5" value="" style="swimlane;shape=mxgraph.bootstrap.anchor;strokeColor=#666666;fillColor=#ffffff;fontColor=#666666;fontStyle=0;childLayout=stackLayout;horizontal=0;startSize=0;horizontalStack=1;resizeParent=1;resizeParentMax=0;resizeLast=0;collapsible=0;marginBottom=0;whiteSpace=wrap;html=1;" vertex="1" parent="HgDEF3lIqZuHBoiITZHO-1">
          <mxGeometry x="930" y="120" width="500" height="50" as="geometry" />
        </mxCell>
        <mxCell id="HgDEF3lIqZuHBoiITZHO-6" value="Home" style="text;align=center;verticalAlign=middle;spacingLeft=10;spacingRight=10;overflow=hidden;points=[[0,0.5],[1,0.5]];portConstraint=eastwest;rotatable=0;whiteSpace=wrap;html=1;shape=mxgraph.mockup.leftButton;rSize=10;fontSize=17;fontStyle=1;strokeColor=default;" vertex="1" parent="HgDEF3lIqZuHBoiITZHO-5">
          <mxGeometry width="125" height="50" as="geometry" />
        </mxCell>
        <mxCell id="HgDEF3lIqZuHBoiITZHO-7" value="About" style="text;strokeColor=#001DBC;align=center;verticalAlign=middle;spacingLeft=10;spacingRight=10;overflow=hidden;points=[[0,0.5],[1,0.5]];portConstraint=eastwest;rotatable=0;whiteSpace=wrap;html=1;rSize=5;fillColor=#0050ef;fontSize=17;fontStyle=1;fontColor=#ffffff;" vertex="1" parent="HgDEF3lIqZuHBoiITZHO-5">
          <mxGeometry x="125" width="125" height="50" as="geometry" />
        </mxCell>
        <mxCell id="HgDEF3lIqZuHBoiITZHO-8" value="North Island" style="text;strokeColor=inherit;align=center;verticalAlign=middle;spacingLeft=10;spacingRight=10;overflow=hidden;points=[[0,0.5],[1,0.5]];portConstraint=eastwest;rotatable=0;whiteSpace=wrap;html=1;rSize=5;fillColor=inherit;fontColor=inherit;fontSize=17;fontStyle=1;" vertex="1" parent="HgDEF3lIqZuHBoiITZHO-5">
          <mxGeometry x="250" width="125" height="50" as="geometry" />
        </mxCell>
        <mxCell id="HgDEF3lIqZuHBoiITZHO-9" value="South Island" style="text;strokeColor=inherit;align=center;verticalAlign=middle;spacingLeft=10;spacingRight=10;overflow=hidden;points=[[0,0.5],[1,0.5]];portConstraint=eastwest;rotatable=0;whiteSpace=wrap;html=1;shape=mxgraph.mockup.rightButton;rSize=10;fillColor=inherit;fontColor=inherit;fontSize=17;fontStyle=1;" vertex="1" parent="HgDEF3lIqZuHBoiITZHO-5">
          <mxGeometry x="375" width="125" height="50" as="geometry" />
        </mxCell>
        <mxCell id="HgDEF3lIqZuHBoiITZHO-10" value="" style="verticalLabelPosition=bottom;shadow=0;dashed=0;align=center;html=1;verticalAlign=top;strokeWidth=1;shape=mxgraph.mockup.graphics.simpleIcon;strokeColor=#999999;" vertex="1" parent="HgDEF3lIqZuHBoiITZHO-1">
          <mxGeometry x="910" y="410" width="500" height="430" as="geometry" />
        </mxCell>
        <mxCell id="HgDEF3lIqZuHBoiITZHO-11" value="" style="strokeWidth=1;shadow=0;dashed=0;align=center;html=1;shape=mxgraph.mockup.buttons.multiButton;fillColor=#008cff;strokeColor=#666666;mainText=;subText=;" vertex="1" parent="HgDEF3lIqZuHBoiITZHO-1">
          <mxGeometry x="40" y="410" width="830" height="420" as="geometry" />
        </mxCell>
        <mxCell id="HgDEF3lIqZuHBoiITZHO-12" value="About" style="strokeWidth=1;shadow=0;dashed=0;align=center;html=1;shape=mxgraph.mockup.anchor;fontSize=16;fontColor=#ffffff;fontStyle=1;whiteSpace=wrap;" vertex="1" parent="HgDEF3lIqZuHBoiITZHO-1">
          <mxGeometry x="30" y="420" width="150" height="20" as="geometry" />
        </mxCell>
        <mxCell id="HgDEF3lIqZuHBoiITZHO-14" value="" style="verticalLabelPosition=bottom;shadow=0;dashed=0;align=center;html=1;verticalAlign=top;strokeWidth=1;shape=mxgraph.mockup.containers.userMale;strokeColor=#666666;strokeColor2=#008cff;" vertex="1" parent="HgDEF3lIqZuHBoiITZHO-1">
          <mxGeometry x="30" y="120" width="50" height="46" as="geometry" />
        </mxCell>
        <mxCell id="HgDEF3lIqZuHBoiITZHO-15" value="" style="strokeWidth=1;shadow=0;dashed=0;align=center;html=1;shape=mxgraph.mockup.buttons.multiButton;fillColor=#008cff;strokeColor=#666666;mainText=;subText=;" vertex="1" parent="HgDEF3lIqZuHBoiITZHO-1">
          <mxGeometry x="50" y="860" width="1380" height="20" as="geometry" />
        </mxCell>
        <mxCell id="HgDEF3lIqZuHBoiITZHO-16" value="" style="strokeWidth=1;shadow=0;dashed=0;align=center;html=1;shape=mxgraph.mockup.anchor;fontSize=16;fontColor=#ffffff;fontStyle=1;whiteSpace=wrap;" vertex="1" parent="HgDEF3lIqZuHBoiITZHO-15">
          <mxGeometry y="3.1999999999999997" width="1380" height="8" as="geometry" />
        </mxCell>
        <mxCell id="HgDEF3lIqZuHBoiITZHO-17" value="Travel NZ copyright" style="strokeWidth=1;shadow=0;dashed=0;align=center;html=1;shape=mxgraph.mockup.anchor;fontSize=12;fontColor=#ffffff;fontStyle=1;whiteSpace=wrap;" vertex="1" parent="HgDEF3lIqZuHBoiITZHO-15">
          <mxGeometry y="12" width="1380" height="4" as="geometry" />
        </mxCell>
      </root>
    </mxGraphModel>
  </diagram>
</mxfile>
